<?xml version="1.0" encoding="utf-8"?>
<!-- Generator: Adobe Illustrator 24.0.0, SVG Export Plug-In . SVG Version: 6.00 Build 0)  -->
<svg version="1.1" id="Capa_1" xmlns="http://www.w3.org/2000/svg" xmlns:xlink="http://www.w3.org/1999/xlink" x="0px" y="0px"
	 viewBox="-40 230 512 512" style="enable-background:new -40 230 512 512;" xml:space="preserve">
<style type="text/css">
	.st0{fill:#72EDFE;}
</style>
<path class="st0" d="M465.9,706.5l-107-107c32.5-39.1,52.1-89.3,52.1-144C411,331.2,309.8,230,185.5,230C61.2,230-40,331.2-40,455.5
	C-40,579.8,61.2,681,185.5,681c54.7,0,104.9-19.6,144-52.1l107,107c4.1,4.1,9.4,6.1,14.7,6.1c5.3,0,10.7-2,14.7-6.1
	C474,727.8,474,714.6,465.9,706.5z M1.6,455.5c0-101.4,82.5-183.8,183.8-183.8c101.4,0,183.9,82.5,183.9,183.8
	c0,101.4-82.5,183.9-183.9,183.9C84.1,639.3,1.6,556.8,1.6,455.5z"/>
</svg>
