<?xml version="1.0" encoding="utf-8"?>
<!-- Generator: Adobe Illustrator 24.0.0, SVG Export Plug-In . SVG Version: 6.00 Build 0)  -->
<svg version="1.1" id="Capa_1" xmlns="http://www.w3.org/2000/svg" xmlns:xlink="http://www.w3.org/1999/xlink" x="0px" y="0px"
	 viewBox="-49 141 512 512" style="enable-background:new -49 141 512 512;" xml:space="preserve">
<style type="text/css">
	.st0{fill:#FFFFFF;}
	.st1{fill:#72EDFE;}
</style>
<g>
	<path class="st0" d="M443,254.1H-29v-82.9h472V254.1L443,254.1z M453,151.2H-39c-5.5,0-10,4.5-10,10v102.9c0,5.5,4.5,10,10,10h492
		c5.5,0,10-4.5,10-10V161.2C463,155.7,458.5,151.2,453,151.2L453,151.2z"/>
	<path class="st1" d="M375.3,200.4c2.3-2.3,5.4-3.5,8.4-3.5c3.1,0,6.1,1.2,8.4,3.5c2.3,2.3,3.5,5.3,3.5,8.4c0,3.2-1.2,6.2-3.5,8.4
		c-2.3,2.3-5.3,3.5-8.4,3.5c-3.2,0-6.2-1.2-8.4-3.5c-2.3-2.3-3.5-5.3-3.5-8.4C371.8,205.6,373,202.6,375.3,200.4L375.3,200.4z
		 M383.7,240.8c5.1,0,10-1.2,14.4-3.4l8.2,8.2c2,2,4.5,2.9,7.1,2.9s5.1-1,7.1-2.9c3.9-3.9,3.9-10.2,0-14.1l-8.2-8.2
		c2.2-4.4,3.4-9.3,3.4-14.4c0-8.5-3.3-16.6-9.4-22.6l0,0c-12.5-12.5-32.7-12.5-45.2,0c-6,6-9.4,14.1-9.4,22.6
		c0,8.5,3.3,16.6,9.4,22.6C367.2,237.5,375.2,240.8,383.7,240.8L383.7,240.8z"/>
	<path class="st1" d="M290.3,234.6c0.3,0.6,0.6,1.2,0.9,1.7c0.4,0.5,0.8,1.1,1.2,1.5c0.5,0.5,1,0.9,1.5,1.2c0.5,0.4,1.1,0.7,1.7,0.9
		c0.6,0.3,1.2,0.4,1.9,0.6c0.6,0.1,1.3,0.2,2,0.2c0.7,0,1.3-0.1,2-0.2c0.6-0.1,1.3-0.3,1.9-0.6s1.2-0.6,1.7-0.9
		c0.5-0.4,1.1-0.8,1.5-1.2c1.9-1.9,2.9-4.4,2.9-7.1c0-0.7-0.1-1.3-0.2-2c-0.1-0.6-0.3-1.3-0.6-1.9c-0.2-0.6-0.6-1.2-0.9-1.7
		c-0.4-0.5-0.8-1.1-1.2-1.5c-0.5-0.5-1-0.9-1.5-1.2c-0.5-0.4-1.1-0.7-1.7-0.9c-0.6-0.3-1.2-0.4-1.9-0.6c-1.3-0.3-2.6-0.3-3.9,0
		c-0.6,0.1-1.3,0.3-1.9,0.6c-0.6,0.3-1.2,0.6-1.7,0.9c-0.5,0.4-1.1,0.8-1.5,1.2c-0.5,0.5-0.9,1-1.2,1.5c-0.4,0.5-0.7,1.1-0.9,1.7
		c-0.3,0.6-0.4,1.2-0.6,1.9c-0.1,0.6-0.2,1.3-0.2,2c0,0.6,0.1,1.3,0.2,1.9C289.9,233.4,290,234,290.3,234.6L290.3,234.6z"/>
	<path class="st1" d="M53.8,240.8h207.8c5.5,0,10-4.5,10-10s-4.5-10-10-10H53.8c-5.5,0-10,4.5-10,10S48.3,240.8,53.8,240.8
		L53.8,240.8z"/>
	<path class="st1" d="M255.8,308.4v162.4l0,0l-78-103.9c-1.9-2.5-4.9-4-8-4s-6.1,1.5-8,4l-63.1,84.1l0,0l-46.1-53.4
		c-1.9-2.2-4.7-3.5-7.6-3.5l0,0c-2.9,0-5.7,1.3-7.6,3.5l-65.3,75.7V308.4H255.8L255.8,308.4z M72.8,485.6h-84.9l57.2-66.2l41.4,47.9
		L72.8,485.6L72.8,485.6z M153.5,411.3l16.4-21.9l16.4,21.9H153.5L153.5,411.3z M116.5,460.7h48.5c5.5,0,10-4.5,10-10s-4.5-10-10-10
		h-33.5l7-9.4h62.8l40.7,54.2H97.8L116.5,460.7L116.5,460.7L116.5,460.7L116.5,460.7z M-37.8,505.6h303.6c5.5,0,10-4.5,10-10V298.4
		c0-5.5-4.5-10-10-10H-37.8c-5.5,0-10,4.5-10,10v197.2C-47.8,501.1-43.3,505.6-37.8,505.6L-37.8,505.6z"/>
	<path class="st1" d="M88.6,339.8c8.5,0,15.4,6.9,15.4,15.4s-6.9,15.4-15.4,15.4c-8.5,0-15.4-6.9-15.4-15.4S80.2,339.8,88.6,339.8
		L88.6,339.8z M88.6,390.6c19.5,0,35.4-15.9,35.4-35.4s-15.9-35.4-35.4-35.4s-35.4,15.9-35.4,35.4S69.2,390.6,88.6,390.6L88.6,390.6
		z"/>
	<path class="st0" d="M443,485.6H309.3V308.4H443V485.6L443,485.6z M453,288.4H299.3c-5.5,0-10,4.5-10,10v197.2c0,5.5,4.5,10,10,10
		H453c5.5,0,10-4.5,10-10V298.4C463,292.8,458.5,288.4,453,288.4L453,288.4z"/>
	<path class="st0" d="M332.6,344.8h87.1c5.5,0,10-4.5,10-10c0-5.5-4.5-10-10-10h-87.1c-5.5,0-10,4.5-10,10
		C322.6,340.4,327.1,344.8,332.6,344.8L332.6,344.8z"/>
	<path class="st0" d="M332.6,385h87.1c5.5,0,10-4.5,10-10c0-5.5-4.5-10-10-10h-87.1c-5.5,0-10,4.5-10,10
		C322.6,380.5,327.1,385,332.6,385L332.6,385z"/>
	<path class="st0" d="M332.6,425.1h87.1c5.5,0,10-4.5,10-10c0-5.5-4.5-10-10-10h-87.1c-5.5,0-10,4.5-10,10
		C322.6,420.6,327.1,425.1,332.6,425.1L332.6,425.1z"/>
	<path class="st0" d="M323.4,459.1c0.3,0.6,0.6,1.2,0.9,1.7c0.4,0.5,0.8,1.1,1.2,1.5c0.5,0.5,1,0.9,1.5,1.2c0.6,0.4,1.1,0.7,1.7,0.9
		c0.6,0.3,1.2,0.4,1.9,0.6c0.6,0.1,1.3,0.2,2,0.2c2.6,0,5.2-1.1,7.1-2.9c0.5-0.5,0.9-1,1.3-1.5c0.4-0.5,0.7-1.1,0.9-1.7
		c0.2-0.6,0.4-1.2,0.6-1.9c0.1-0.6,0.2-1.3,0.2-2c0-0.6-0.1-1.3-0.2-1.9c-0.1-0.6-0.3-1.3-0.6-1.9c-0.3-0.6-0.6-1.2-0.9-1.7
		c-0.4-0.5-0.8-1.1-1.3-1.5c-2.3-2.3-5.8-3.4-9-2.7c-0.6,0.1-1.3,0.3-1.9,0.6c-0.6,0.3-1.2,0.6-1.7,0.9c-0.5,0.4-1.1,0.8-1.5,1.2
		c-0.5,0.5-0.9,1-1.2,1.5c-0.4,0.5-0.7,1.1-0.9,1.7c-0.3,0.6-0.4,1.2-0.6,1.9c-0.1,0.6-0.2,1.3-0.2,1.9c0,0.7,0.1,1.3,0.2,2
		C322.9,457.8,323.1,458.5,323.4,459.1L323.4,459.1z"/>
	<path class="st0" d="M419.7,445.2h-49.2c-5.5,0-10,4.5-10,10c0,5.5,4.5,10,10,10h49.2c5.5,0,10-4.5,10-10
		C429.7,449.7,425.2,445.2,419.7,445.2L419.7,445.2z"/>
	<path class="st0" d="M105.9,622.8H-27.8v-83h133.7V622.8L105.9,622.8z M115.9,519.8H-37.8c-5.5,0-10,4.5-10,10v103
		c0,5.5,4.5,10,10,10h153.7c5.5,0,10-4.5,10-10v-103C125.9,524.2,121.4,519.8,115.9,519.8L115.9,519.8z"/>
	<path class="st0" d="M443,622.8H160.7v-83H443V622.8L443,622.8L443,622.8z M453,519.8H150.7c-5.5,0-10,4.5-10,10v103
		c0,5.5,4.5,10,10,10H453c5.5,0,10-4.5,10-10v-103C463,524.2,458.5,519.8,453,519.8L453,519.8z"/>
	<path class="st1" d="M187.2,585.1c0.2,0.6,0.6,1.2,0.9,1.7c0.4,0.5,0.8,1.1,1.3,1.5c1.9,1.9,4.4,2.9,7.1,2.9c0.6,0,1.3-0.1,1.9-0.2
		c0.6-0.1,1.3-0.3,1.9-0.6c0.6-0.3,1.2-0.5,1.7-0.9c0.5-0.4,1.1-0.8,1.5-1.2c0.5-0.5,0.9-1,1.2-1.5c0.4-0.5,0.7-1.1,0.9-1.7
		c0.2-0.6,0.4-1.2,0.6-1.9c0.1-0.6,0.2-1.3,0.2-2c0-0.7-0.1-1.3-0.2-2c-0.1-0.6-0.3-1.3-0.6-1.9c-0.2-0.6-0.6-1.2-0.9-1.7
		c-0.4-0.6-0.8-1.1-1.2-1.5c-0.5-0.5-1-0.9-1.5-1.2c-0.5-0.4-1.1-0.7-1.7-0.9c-0.6-0.3-1.2-0.5-1.9-0.6c-1.3-0.3-2.6-0.3-3.9,0
		c-0.6,0.1-1.3,0.3-1.9,0.6c-0.6,0.3-1.2,0.6-1.7,0.9c-0.6,0.4-1.1,0.8-1.5,1.2c-0.5,0.5-0.9,1-1.3,1.5c-0.4,0.5-0.7,1.1-0.9,1.7
		c-0.3,0.6-0.4,1.2-0.6,1.9c-0.1,0.6-0.2,1.3-0.2,2c0,0.6,0.1,1.3,0.2,2C186.8,583.8,187,584.5,187.2,585.1L187.2,585.1z"/>
	<path class="st1" d="M234.4,591.3h167.9c5.5,0,10-4.5,10-10c0-5.5-4.5-10-10-10H234.4c-5.5,0-10,4.5-10,10
		C224.4,586.8,228.9,591.3,234.4,591.3L234.4,591.3z"/>
</g>
</svg>
