<?xml version="1.0" encoding="utf-8"?>
<!-- Generator: Adobe Illustrator 24.0.0, SVG Export Plug-In . SVG Version: 6.00 Build 0)  -->
<svg version="1.1" id="Capa_1" xmlns="http://www.w3.org/2000/svg" xmlns:xlink="http://www.w3.org/1999/xlink" x="0px" y="0px"
	 viewBox="-62.3 149.5 538.6 495" style="enable-background:new -62.3 149.5 538.6 495;" xml:space="preserve">
<style type="text/css">
	.st0{fill:#FFFFFF;}
	.st1{fill:#72EDFE;}
</style>
<g>
	<path class="st0" d="M246.2,600c0-12.3-10-22.2-22.2-22.2c-12.2,0-22.2,10-22.2,22.2c0,12.2,10,22.2,22.2,22.2
		C236.2,622.2,246.2,612.3,246.2,600L246.2,600z M224,606.4c-3.5,0-6.4-2.9-6.4-6.4c0-3.5,2.9-6.4,6.4-6.4c3.6,0,6.4,2.9,6.4,6.4
		C230.4,603.6,227.5,606.4,224,606.4L224,606.4z M224,606.4"/>
	<path class="st1" d="M224,251.9c-32.8,0-59.5,26.7-59.5,59.5c0,20.7,10.6,38.9,26.6,49.6c0.1,0.1,0.2,0.2,0.3,0.3
		c9.4,6.2,20.7,9.7,32.5,9.7c12.3,0,25.7-4.7,32.9-9.9c16-10.7,26.6-28.9,26.6-49.6C283.5,278.6,256.8,251.9,224,251.9L224,251.9z
		 M239.3,352.4c-4.8,1.8-10.1,2.8-15.3,2.8c-5.2,0-10.5-1-15.3-2.8c-0.1-0.1-0.3-0.1-0.4-0.2c4.4-3.6,9.9-5.6,15.8-5.6
		c5.9,0,11.4,2,15.8,5.6C239.6,352.2,239.5,352.3,239.3,352.4L239.3,352.4z M253.6,343.6c-7.6-8.1-18.2-12.7-29.6-12.7
		c-11.4,0-22,4.6-29.6,12.7c-8.7-8-14.1-19.4-14.1-32.1c0-24.1,19.6-43.7,43.7-43.7c24.1,0,43.7,19.6,43.7,43.7
		C267.7,324.1,262.2,335.6,253.6,343.6L253.6,343.6z M253.6,343.6"/>
	<path class="st1" d="M224,278.1c-13.7,0-24.8,11.1-24.8,24.8c0,13.7,11.1,24.8,24.8,24.8c13.7,0,24.8-11.1,24.8-24.8
		C248.8,289.2,237.7,278.1,224,278.1L224,278.1z M224,312c-5,0-9.1-4.1-9.1-9.1c0-5,4.1-9.1,9.1-9.1c5,0,9.1,4.1,9.1,9.1
		C233,307.9,229,312,224,312L224,312z M224,312"/>
	<path class="st0" d="M211.1,200h25.7c4.4,0,7.9-3.5,7.9-7.9c0-4.4-3.5-7.9-7.9-7.9h-25.7c-4.4,0-7.9,3.5-7.9,7.9
		C203.2,196.5,206.8,200,211.1,200L211.1,200z M211.1,200"/>
	<path class="st1" d="M265.3,393.7h-82.6c-6.9,0-12.6,5.6-12.6,12.6v25.2c0,6.9,5.6,12.6,12.6,12.6h82.6c6.9,0,12.6-5.6,12.6-12.6
		v-25.2C277.9,399.4,272.2,393.7,265.3,393.7L265.3,393.7z M262.1,428.3h-76.2v-18.8h76.2V428.3z M262.1,428.3"/>
	<g>
		<path class="st1" d="M265.3,466.9h-82.6c-6.9,0-12.6,5.6-12.6,12.6c0,4.4,3.5,7.9,7.9,7.9c3.2,0,6-1.9,7.2-4.7h76.9v18.8H125.4
			c-4.4,0-7.9,3.5-7.9,7.9c0,4.4,3.5,7.9,7.9,7.9h139.8c6.9,0,12.6-5.6,12.6-12.6v-25.2C277.9,472.5,272.2,466.9,265.3,466.9
			L265.3,466.9z M265.3,466.9"/>
		<path class="st0" d="M468.4,312H377V184c0-19-15.5-34.5-34.5-34.5h-237c-19,0-34.5,15.5-34.5,34.5v113.7l-22.8-39.6
			c2.9-3.1,4.9-6.8,6.1-10.9c1.8-6.7,0.9-13.7-2.6-19.6c-5.8-10.1-17.5-14.8-28.3-12.3c-6.1-9.4-15.4-16.2-26.3-19.1
			c-11.7-3.2-24-1.5-34.5,4.5c-10.5,6.1-18,15.9-21.2,27.6c-2.9,10.9-1.7,22.3,3.4,32.4c-7.6,8.1-9.3,20.5-3.5,30.6
			c3.5,6,9,10.3,15.7,12.1c2.2,0.6,4.5,0.9,6.7,0.9c1.9,0,3.9-0.2,5.8-0.7l82.9,143.6l0,0l0.1,0.1c0,0.1,0.1,0.1,0.1,0.1
			c1.2,2,0.7,1.3,18.6,13.7v149c0,19,15.5,34.5,34.5,34.5h102.8c4.4,0,7.9-3.5,7.9-7.9c0-4.4-3.5-7.9-7.9-7.9H105.4
			c-10.3,0-18.7-8.4-18.7-18.7v-38.8h274.4V610c0,10.3-8.4,18.7-18.7,18.7H239.8c-4.4,0-7.9,3.5-7.9,7.9c0,4.4,3.5,7.9,7.9,7.9
			h102.7c19,0,34.5-15.5,34.5-34.5V499h91.5c4.4,0,7.9-3.5,7.9-7.9c0-4.4-3.5-7.9-7.9-7.9H377V327.8h91.5c4.4,0,7.9-3.5,7.9-7.9
			C476.3,315.5,472.8,312,468.4,312L468.4,312z M-43.5,232.4c2.1-7.7,7-14.1,13.8-18c6.9-4,14.9-5,22.5-3C-0.6,213.1,5,217,9,222.3
			l-51.1,29.5C-44.7,245.7-45.2,238.9-43.5,232.4L-43.5,232.4z M-31.1,287l-0.3,0.1c-2.3,1.3-5.1,1.7-7.7,1
			c-2.6-0.7-4.8-2.4-6.1-4.7c-1.3-2.3-1.7-5.1-1-7.7c0.7-2.6,2.4-4.8,4.7-6.1l65.4-37.7l0,0c0,0,0,0,0,0l0.2-0.1
			c2.3-1.3,5.1-1.7,7.7-1c2.6,0.7,4.8,2.4,6.1,4.7c1.3,2.3,1.7,5.1,1,7.7c-0.7,2.6-2.4,4.8-4.7,6.1L-31.1,287z M56.8,423.4
			l-73.2-126.7l18.9-10.9l13.9,24c1.5,2.5,4.1,3.9,6.8,3.9c1.3,0,2.7-0.3,3.9-1.1c3.8-2.2,5.1-7,2.9-10.8l-13.9-24L35,267l36.9,63.9
			c0,0,0,0,0,0l36.2,62.8c-4,0.1-7.7,1-10.9,2.9c-3.2,1.9-5.9,4.6-8,8l-43.2-74.8c-2.2-3.8-7-5.1-10.8-2.9c-3.8,2.2-5.1,7-2.9,10.8
			l43.2,74.8c-4,0.1-7.7,1.1-10.9,2.9C61.5,417.3,58.9,419.9,56.8,423.4L56.8,423.4z M83.3,450.4C83.3,450.4,83.3,450.4,83.3,450.4
			l-15.7-10.8c0.9-5.5,2.7-9.1,5.1-10.5c2.9-1.7,8.5-0.8,15.7,2.6c0.1,0,0.1,0,0.2,0.1c4.9,2.1,10.4-1.1,11-6.4c0,0,0-0.1,0-0.1
			c0.7-7.9,2.7-13.2,5.6-14.9c2.4-1.4,6.4-1,11.6,0.9l2.8,34.2L95.8,459L83.3,450.4z M120.9,462.7l0.9,11c0.1,0.7-0.2,1.2-0.8,1.6
			c-0.6,0.3-1.2,0.3-1.8-0.1l-9.1-6.3L120.9,462.7z M361.2,312h-56.9c-4.4,0-7.9,3.5-7.9,7.9c0,4.4,3.5,7.9,7.9,7.9h56.9v155.5
			h-56.9c-4.4,0-7.9,3.5-7.9,7.9c0,4.4,3.5,7.9,7.9,7.9h56.9v56.5H86.8V472l23.5,16.2c3,2.1,6.4,3.1,9.9,3.1c3,0,6-0.8,8.7-2.4
			c5.9-3.4,9.2-9.7,8.7-16.5c-5.7-70.2-5.3-68.2-6.1-70c-0.1-0.2-0.3-0.7-0.3-0.7L86.8,325V184c0-10.3,8.4-18.7,18.7-18.7h237
			c10.3,0,18.7,8.4,18.7,18.7V312z M361.2,312"/>
	</g>
	<path class="st0" d="M468.4,284.3h-51.2c-4.4,0-7.9,3.5-7.9,7.9c0,4.4,3.5,7.9,7.9,7.9h51.2c4.4,0,7.9-3.5,7.9-7.9
		C476.3,287.9,472.8,284.3,468.4,284.3L468.4,284.3z M468.4,284.3"/>
	<path class="st0" d="M417.2,272.5h51.2c4.4,0,7.9-3.5,7.9-7.9c0-4.4-3.5-7.9-7.9-7.9h-51.2c-4.4,0-7.9,3.5-7.9,7.9
		C409.3,269,412.8,272.5,417.2,272.5L417.2,272.5z M417.2,272.5"/>
	<path class="st0" d="M468.4,455.6h-51.2c-4.4,0-7.9,3.5-7.9,7.9c0,4.4,3.5,7.9,7.9,7.9h51.2c4.4,0,7.9-3.5,7.9-7.9
		C476.3,459.1,472.8,455.6,468.4,455.6L468.4,455.6z M468.4,455.6"/>
	<path class="st0" d="M468.4,428h-51.2c-4.4,0-7.9,3.5-7.9,7.9c0,4.4,3.5,7.9,7.9,7.9h51.2c4.4,0,7.9-3.5,7.9-7.9
		C476.3,431.5,472.8,428,468.4,428L468.4,428z M468.4,428"/>
</g>
</svg>
