<?xml version="1.0" encoding="utf-8"?>
<!-- Generator: Adobe Illustrator 24.0.0, SVG Export Plug-In . SVG Version: 6.00 Build 0)  -->
<svg version="1.1" id="Capa_1" xmlns="http://www.w3.org/2000/svg" xmlns:xlink="http://www.w3.org/1999/xlink" x="0px" y="0px"
	 viewBox="-49 157.5 512 478.9" style="enable-background:new -49 157.5 512 478.9;" xml:space="preserve">
<style type="text/css">
	.st0{fill:#FFFFFF;}
	.st1{fill:#72EDFE;}
</style>
<g>
	<path class="st0" d="M43.6,209.7c0-13.8-11.3-25.1-25.1-25.1c-13.8,0-25.1,11.3-25.1,25.1c0,13.8,11.3,25.1,25.1,25.1
		C32.4,234.8,43.6,223.5,43.6,209.7L43.6,209.7z M8.4,209.7c0-5.6,4.6-10.1,10.1-10.1c5.6,0,10.1,4.5,10.1,10.1
		c0,5.6-4.5,10.1-10.1,10.1C12.9,219.8,8.4,215.2,8.4,209.7L8.4,209.7z M8.4,209.7"/>
	<path class="st0" d="M78.2,234.8c13.8,0,25.1-11.3,25.1-25.1c0-13.8-11.3-25.1-25.1-25.1s-25.1,11.3-25.1,25.1
		C53.1,223.5,64.3,234.8,78.2,234.8L78.2,234.8z M78.2,199.5c5.6,0,10.1,4.5,10.1,10.1c0,5.6-4.6,10.1-10.1,10.1
		c-5.6,0-10.1-4.5-10.1-10.1C68,204.1,72.6,199.5,78.2,199.5L78.2,199.5z M78.2,199.5"/>
	<path class="st0" d="M137.8,234.8c13.8,0,25.1-11.3,25.1-25.1c0-13.8-11.3-25.1-25.1-25.1c-13.8,0-25.1,11.3-25.1,25.1
		C112.7,223.5,124,234.8,137.8,234.8L137.8,234.8z M137.8,199.5c5.6,0,10.1,4.5,10.1,10.1c0,5.6-4.5,10.1-10.1,10.1
		c-5.6,0-10.1-4.5-10.1-10.1C127.7,204.1,132.2,199.5,137.8,199.5L137.8,199.5z M137.8,199.5"/>
	<g>
		<path class="st0" d="M220.6,217.1H403c4.1,0,7.5-3.4,7.5-7.5c0-4.1-3.4-7.5-7.5-7.5H220.6c-4.1,0-7.5,3.3-7.5,7.5
			C213.2,213.8,216.5,217.1,220.6,217.1L220.6,217.1z M220.6,217.1"/>
		<path class="st0" d="M431.2,157.5H-17.2c-17.2,0-31.3,14-31.3,31.3v416.4c0,17.2,14,31.3,31.3,31.3h448.5
			c17.2,0,31.3-14,31.3-31.3V188.8C462.5,171.5,448.5,157.5,431.2,157.5L431.2,157.5z M431.2,621.5H-17.2c-9,0-16.3-7.3-16.3-16.3
			V261.8H8.2c4.1,0,7.5-3.3,7.5-7.5c0-4.1-3.3-7.5-7.5-7.5h-41.7v-58c0-9,7.3-16.3,16.3-16.3h448.5c9,0,16.3,7.3,16.3,16.3v58H36.1
			c-4.1,0-7.5,3.4-7.5,7.5c0,4.1,3.4,7.5,7.5,7.5h411.4v343.4C447.5,614.2,440.2,621.5,431.2,621.5L431.2,621.5z M431.2,621.5"/>
	</g>
	<path class="st1" d="M375.1,280.4h-65.4c-13.1,0-23.7,10.6-23.7,23.7v9.1c-7.7,2.4-13.7,8.5-16.2,16.2l-116.9,0.4
		c-2.4-7.7-8.5-13.7-16.2-16.1v-9.1c0-13.1-10.6-23.7-23.7-23.7H47.6c-13.1,0-23.7,10.6-23.7,23.7v65.4c0,13.1,10.6,23.7,23.7,23.7
		h9.1c2.4,7.7,8.5,13.7,16.2,16.2v30.6c0,15.8,12.8,28.6,28.6,28.6h70.5c2.4,7.7,8.5,13.7,16.2,16.2v9.6c0,12.8,10.4,23.2,23.2,23.2
		h10.1c2.2,7.5,7.8,13.6,15,16.3c-2.2,4.3-6.6,7.2-11.7,7.2h-80c-1.9-8.6-8.4-15.6-16.7-18.2v-9.1c0-13.1-10.6-23.7-23.7-23.7H38.9
		c-13.1,0-23.7,10.6-23.7,23.7v65.4c0,13.1,10.6,23.7,23.7,23.7h65.4c13.1,0,23.7-10.6,23.7-23.7v-9.1c7-2.2,12.6-7.4,15.4-14.1
		h81.3c13.2,0,24.3-9.2,27.3-21.5c8.2-2.3,14.8-8.8,17.1-17h8.6c12.8,0,23.2-10.4,23.2-23.2v-19.7c0-4.1-3.4-7.5-7.5-7.5
		c-4.1,0-7.5,3.3-7.5,7.5v19.7c0,4.5-3.7,8.2-8.2,8.2h-9c-7.8-22.3-39.2-22.2-46.9,0h-10.5c-4.5,0-8.2-3.7-8.2-8.2v-9.6
		c1.6-0.5,3.1-1.2,4.6-2c0.1-0.1,12.7-6.5,12.7-21.7c0-10.8-7-20.4-17.3-23.7v-9.6c0-4.5,3.7-8.2,8.2-8.2h66.4
		c4.5,0,8.2,3.7,8.2,8.2v19.7c0,4.1,3.4,7.5,7.5,7.5c4.1,0,7.5-3.4,7.5-7.5v-19.7c0-12.8-10.4-23.2-23.2-23.2h-66.4
		c-12.8,0-23.2,10.4-23.2,23.2v9.6c-7.7,2.4-13.7,8.5-16.2,16.2h-70.5c-7.5,0-13.7-6.1-13.7-13.6v-30.6c7.7-2.4,13.7-8.5,16.2-16.2
		h9.1c13.1,0,23.7-10.6,23.7-23.7V361c7.7-2.4,13.8-8.5,16.2-16.2l116.9-0.4c2.4,7.7,8.5,13.7,16.2,16.1v9.1
		c0,13.1,10.6,23.7,23.7,23.7h65.4c13.1,0,23.7-10.6,23.7-23.7v-65.4C398.8,291.1,388.1,280.4,375.1,280.4L375.1,280.4z
		 M120.6,556.9c-5.4,0-9.8-4.4-9.8-9.8c0-5.4,4.4-9.8,9.8-9.8c5.4,0,9.8,4.4,9.8,9.8C130.4,552.5,126,556.9,120.6,556.9L120.6,556.9
		z M113.1,579.8c0,4.8-3.9,8.7-8.7,8.7H38.9c-4.8,0-8.7-3.9-8.7-8.7v-65.4c0-4.8,3.9-8.7,8.7-8.7h65.4c4.8,0,8.7,3.9,8.7,8.7v9.1
		c-23.2,7.4-22.9,40,0,47.3V579.8z M255.1,511.2c0,5.4-4.4,9.8-9.8,9.8c-5.4,0-9.8-4.4-9.8-9.8C236.7,497.7,253.9,498.3,255.1,511.2
		L255.1,511.2z M197.1,451.9c4.7,0.7,8.3,4.8,8.3,9.7c0,5.4-4.4,9.8-9.8,9.8c-5.4,0-9.8-4.4-9.8-9.8
		C185.8,455.6,191.1,451,197.1,451.9L197.1,451.9z M129.2,347.2c-5.4,0-9.8-4.4-9.8-9.8c0-5.4,4.4-9.8,9.8-9.8
		c5.4,0,9.8,4.4,9.8,9.8C139.1,342.8,134.6,347.2,129.2,347.2L129.2,347.2z M80.3,396.1c-6,0-10.6-5.3-9.7-11.3
		c0.7-4.7,4.8-8.3,9.7-8.3c5.4,0,9.8,4.4,9.8,9.8C90.1,391.7,85.7,396.1,80.3,396.1L80.3,396.1z M121.7,370.1c0,4.8-3.9,8.7-8.7,8.7
		H104c-3.9-12.2-16.3-19.3-28.6-16.8c-0.1,0.1-14,2.3-18.7,16.8h-9.1c-4.8,0-8.7-3.9-8.7-8.7v-65.4c0-4.8,3.9-8.7,8.7-8.7H113
		c4.8,0,8.7,3.9,8.7,8.7v9.1c-10.5,3.3-17.9,13.4-17.3,24.9c0,0.1,0.1,16.9,17.3,22.4V370.1z M293.4,327c5.4,0,9.8,4.4,9.8,9.8
		c0,5.4-4.4,9.8-9.8,9.8c-5.4,0-9.8-4.4-9.8-9.8C283.6,331.4,288,327,293.4,327L293.4,327z M383.8,369.6c0,4.8-3.9,8.7-8.7,8.7
		h-65.4c-4.8,0-8.7-3.9-8.7-8.7v-9.1c10.7-3.4,17.9-13.6,17.3-24.9v0c-0.5-10.3-7.4-19.2-17.3-22.4v-9.1c0-4.8,3.9-8.7,8.7-8.7h65.4
		c4.8,0,8.7,3.9,8.7,8.7V369.6z M383.8,369.6"/>
</g>
</svg>
