<?xml version="1.0" encoding="utf-8"?>
<!-- Generator: Adobe Illustrator 24.0.0, SVG Export Plug-In . SVG Version: 6.00 Build 0)  -->
<svg version="1.1" id="Capa_1" xmlns="http://www.w3.org/2000/svg" xmlns:xlink="http://www.w3.org/1999/xlink" x="0px" y="0px"
	 viewBox="-49 149.5 512 494.9" style="enable-background:new -49 149.5 512 494.9;" xml:space="preserve">
<style type="text/css">
	.st0{fill:#72EDFE;}
	.st1{fill:#FFFFFF;}
</style>
<g>
	<path class="st0" d="M232.6,507.9h-51.2c-4.7,0-8.5-3.8-8.5-8.5c0-4.7,3.8-8.5,8.5-8.5h51.2c4.7,0,8.5,3.8,8.5,8.5
		C241.1,504.1,237.3,507.9,232.6,507.9L232.6,507.9z"/>
	<path class="st1" d="M428.9,149.5H-14.9c-18.8,0-34.1,15.3-34.1,34.1v324.2c0,18.8,15.3,34.2,34.1,34.2h170.4
		c-2,34-16.2,51.2-42.4,51.2H96.1c-14.1,0-25.6,11.5-25.6,25.6c0,14.1,11.5,25.6,25.6,25.6h221.9c14.1,0,25.6-11.5,25.6-25.6
		c0-14.1-11.5-25.6-25.6-25.6h-17.1c-26.2,0-40.5-17.2-42.4-51.2h170.4c18.8,0,34.1-15.3,34.1-34.2V183.7
		C463,164.8,447.7,149.5,428.9,149.5z M317.9,610.3c4.7,0,8.5,3.8,8.5,8.5s-3.8,8.5-8.5,8.5H96.1c-4.7,0-8.5-3.8-8.5-8.5
		s3.8-8.5,8.5-8.5H317.9z M259.3,593.3H154.7c10.5-11.6,16.7-29,17.9-51.2h68.7C242.6,564.3,248.8,581.6,259.3,593.3z M445.9,507.9
		c0,9.4-7.7,17.1-17.1,17.1H-14.9c-9.4,0-17.1-7.7-17.1-17.1v-34.1h477.9V507.9z M2.2,456.7v-256h409.6v256H2.2z M445.9,456.7h-17.1
		V192.2c0-4.7-3.8-8.5-8.5-8.5H-6.3c-4.7,0-8.5,3.8-8.5,8.5v264.5h-17.1v-273c0-9.4,7.7-17.1,17.1-17.1h443.7
		c9.4,0,17.1,7.7,17.1,17.1V456.7z"/>
	<path class="st0" d="M113.1,345.8h51.2v-17.1h-51.2V345.8L113.1,345.8z M172.9,362.9h-68.3c-4.7,0-8.5-3.8-8.5-8.5v-34.1
		c0-4.7,3.8-8.5,8.5-8.5h68.3c4.7,0,8.5,3.8,8.5,8.5v34.1C181.4,359,177.6,362.9,172.9,362.9L172.9,362.9z"/>
	<path class="st0" d="M252.2,331.2c0,0.1-0.1,0.1-0.1,0.2C252.1,331.3,252.2,331.3,252.2,331.2L252.2,331.2z"/>
	<path class="st0" d="M358.8,401l-20.6-20.6l11.5-11.5c2.1-2.1,3-5.2,2.2-8.1c-0.7-2.9-2.9-5.2-5.8-6.1l-28.1-8.4V226.3
		c0-4.7-3.8-8.5-8.5-8.5H70.5c-4.7,0-8.5,3.8-8.5,8.5v162.1c0,4.7,3.8,8.5,8.5,8.5h196.8l8.4,28c0.9,2.9,3.2,5.1,6.1,5.8
		c2.9,0.7,6-0.1,8.1-2.3l12.1-12.1l20.6,20.6c1.6,1.6,3.8,2.5,6,2.5c2.3,0,4.4-0.9,6-2.5l24.1-24.1
		C362.1,409.7,362.1,404.3,358.8,401z M79,234.9h221.9v25.6H79V234.9z M249.8,338.6c0,0.2,0.1,0.3,0.1,0.5c0,0.2,0.1,0.4,0.2,0.6
		l12.1,40.2H79V277.5h221.9v63.6l-40.2-12c-3-0.9-6.3-0.1-8.5,2.1c0,0.1-0.1,0.1-0.1,0.2c-0.2,0.1-0.3,0.3-0.4,0.5c0,0,0,0,0,0
		c-0.2,0.2-0.3,0.4-0.5,0.7c0,0,0,0,0,0c-0.1,0.2-0.2,0.4-0.3,0.5c-0.2,0.4-0.4,0.7-0.5,1.1c-0.1,0.4-0.3,0.8-0.4,1.2
		C249.7,336.5,249.7,337.5,249.8,338.6z M328.6,419.1l-18.8-18.8c-2.2-2.2-5-3.3-7.9-3.3c-2.9,0-5.7,1.1-7.9,3.3l-6.2,6.2l-6.1-20.3
		c0-0.1,0-0.1,0-0.1L271,350l36,10.8l20.5,6.1l-6.6,6.6c-1.8,1.8-2.8,4.3-2.8,6.8c0,2.6,1,5,2.8,6.8l19.8,19.8L328.6,419.1z"/>
</g>
</svg>
