<?xml version="1.0" encoding="utf-8"?>
<!-- Generator: Adobe Illustrator 24.0.0, SVG Export Plug-In . SVG Version: 6.00 Build 0)  -->
<svg version="1.1" id="Слой_1" xmlns="http://www.w3.org/2000/svg" xmlns:xlink="http://www.w3.org/1999/xlink" x="0px" y="0px"
	 viewBox="0 0 512 501.9" style="enable-background:new 0 0 512 501.9;" xml:space="preserve">
<style type="text/css">
	.st0{fill:#72EDFE;}
	.st1{fill:#FFFFFF;}
</style>
<path class="st0" d="M340.4,170.6c-4.7-1.3-9.6-1.3-14.3-0.1l-15.6-27.2l-13,7.5l15.6,27.2c-3.4,3.4-5.8,7.6-7.1,12.4
	c-2,7.2-1,14.8,2.7,21.3l7.8,13.7c3.7,6.5,9.7,11.2,17,13.1c2.4,0.7,4.9,1,7.4,1c2.3,0,4.6-0.3,6.9-0.9l3.1,5.3
	c-8.6,8.7-10.8,22.5-4.4,33.6l7.8,13.7c3.7,6.5,9.7,11.2,17,13.1c2.4,0.7,4.9,1,7.4,1c2.3,0,4.6-0.3,6.9-0.9l15.7,27.4l13-7.5
	l-15.7-27.4c8.6-8.7,10.8-22.5,4.4-33.6l-7.8-13.7c-6.4-11.2-19.3-16.3-31.2-13.3l-3.1-5.3c3.4-3.4,5.8-7.6,7.1-12.4
	c2-7.2,1-14.8-2.7-21.3l-7.8-13.6C353.7,177.2,347.7,172.5,340.4,170.6L340.4,170.6z M382.1,257l7.8,13.7c2.2,3.8,2.2,8.2,0.5,11.9
	L386,275l-13,7.5l4.4,7.6c-0.7-0.1-1.5-0.2-2.2-0.4c-3.4-0.9-6.1-3.1-7.9-6.1l-7.8-13.6c-2.2-3.8-2.2-8.2-0.5-11.9l4.5,7.8l13-7.5
	l-4.5-7.8C376.1,250.9,379.9,253.2,382.1,257L382.1,257z M348.3,209.1l-13,7.5l4.4,7.6c-0.7-0.1-1.5-0.2-2.2-0.4
	c-3.4-0.9-6.1-3.1-7.9-6.1l-7.8-13.7c-1.7-3-2.2-6.5-1.3-9.9c0.2-0.7,0.4-1.4,0.8-2.1l4.5,7.8l13-7.5l-4.5-7.8
	c4.1,0.4,7.9,2.7,10,6.5l7.8,13.7c1.7,3,2.2,6.5,1.3,9.9c-0.2,0.7-0.4,1.4-0.8,2.1L348.3,209.1z M348.3,209.1"/>
<path class="st0" d="M111.2,331.7l15.7-27.4c2.3,0.6,4.6,0.9,6.8,0.9c9.7,0,19.2-5.1,24.4-14.1l7.8-13.6c3.7-6.5,4.7-14.1,2.7-21.3
	c-1.3-4.7-3.7-9-7.1-12.4l3.1-5.3c2.3,0.6,4.6,0.9,6.8,0.9c9.7,0,19.2-5.1,24.4-14.1l7.8-13.7c6.4-11.2,4.2-24.9-4.4-33.6l15.6-27.2
	l-13-7.5l-15.6,27.2c-11.9-3-24.8,2.1-31.2,13.2l-7.8,13.7c-6.4,11.2-4.2,24.9,4.4,33.6l-3.1,5.4c-4.6-1.2-9.5-1.2-14.3,0.1
	c-7.2,2-13.2,6.6-17,13.1l-7.8,13.7c-6.4,11.2-4.2,24.9,4.4,33.6l-15.7,27.4L111.2,331.7z M159,214.7c-0.9-3.4-0.5-6.9,1.3-9.9
	l7.8-13.7c2.2-3.8,6-6.1,10-6.5l-4.5,7.8l13,7.5l4.5-7.8c1.7,3.7,1.7,8.1-0.5,11.9l-7.8,13.7c-2.2,3.8-6,6.1-10,6.5l4.4-7.6l-13-7.5
	l-4.4,7.6C159.4,216.1,159.2,215.4,159,214.7L159,214.7z M122.5,270.7l7.8-13.7c1.7-3,4.5-5.2,7.9-6.1c0.7-0.2,1.4-0.3,2.2-0.4
	l-4.5,7.8l13,7.5l4.5-7.8c1.7,3.7,1.7,8.1-0.5,11.9l-7.8,13.6c-2.2,3.8-6,6.1-10,6.5l4.4-7.6l-13-7.5l-4.4,7.6
	C120.3,278.9,120.4,274.5,122.5,270.7L122.5,270.7z M122.5,270.7"/>
<path class="st0" d="M331.6,410.7l31.3-0.1l0-15l-31.4,0.1c-3.3-11.8-14.2-20.4-27-20.4h-0.1l-15.7,0c-12.9,0-23.7,8.8-26.9,20.6
	l-6.2,0c-1.3-4.6-3.7-8.8-7.2-12.3c-5.3-5.3-12.3-8.2-19.8-8.2h-0.1l-15.7,0c-7.5,0-14.5,3-19.8,8.3c-3.5,3.5-5.9,7.7-7.2,12.3
	l-31.6,0.1l0,15l31.6-0.1c3.3,11.8,14.2,20.4,27,20.4h0.1l15.7,0c7.5,0,14.5-3,19.8-8.3c3.5-3.5,5.9-7.7,7.2-12.3l6.2,0
	c1.3,4.6,3.8,8.8,7.2,12.3c5.3,5.3,12.3,8.1,19.8,8.1h0.1l15.7,0c7.5,0,14.5-3,19.8-8.3C327.9,419.6,330.3,415.3,331.6,410.7
	L331.6,410.7z M237.9,412.7c-2.4,2.5-5.7,3.8-9.2,3.8l-15.7,0h0c-4.4,0-8.2-2.2-10.6-5.5l8.8,0l0-15l-8.8,0c0.4-0.6,0.9-1.2,1.4-1.7
	c2.4-2.5,5.7-3.8,9.2-3.8l15.7,0h0c3.5,0,6.7,1.3,9.2,3.8c0.5,0.5,1,1.1,1.4,1.7l-9,0l0,15l9,0C238.9,411.6,238.4,412.2,237.9,412.7
	L237.9,412.7z M304.6,416.3l-15.7,0h0c-3.5,0-6.7-1.3-9.2-3.8c-0.5-0.5-1-1.1-1.4-1.7l8.8,0l0-15l-8.8,0c2.3-3.3,6.2-5.5,10.6-5.5
	l15.7,0h0c4.4,0,8.2,2.2,10.6,5.5l-9,0l0,15l9,0c-0.4,0.6-0.9,1.2-1.4,1.7C311.3,414.9,308.1,416.3,304.6,416.3L304.6,416.3z
	 M304.6,416.3"/>
<path class="st1" d="M263.7,206.8v-83.2l72-41.6l-7.5-13l-72,41.6l-72-41.6l-7.5,13l72,41.6v83.2H263.7z M263.7,206.8"/>
<path class="st1" d="M480.7,332.4l-72,41.6l-72.1-41.6l-7.5,13l72.1,41.6l0,83.2l15,0l0-83.2l72-41.6L480.7,332.4z M480.7,332.4"/>
<g>
	<path class="st1" d="M110.8,469.6v-83.2l72-41.6l-7.5-13l-72,41.6l-72-41.6l-7.5,13l72,41.6v83.2H110.8z M110.8,469.6"/>
	<path class="st1" d="M167.9,68.3l88.3-51l88.3,51v93.4h15V59.6L256.2,0L152.9,59.6v102.1h15V68.3z M167.9,68.3"/>
</g>
<path class="st1" d="M256.2,238.6l41.5-23.9l-7.5-13l-34,19.6l-34-19.6l-7.5,13L256.2,238.6z M256.2,238.6"/>
<path class="st1" d="M103.3,484.1l-88.3-51v-102l82-47.4l-7.5-13L0,322.5v119.3l103.3,59.6l95.4-55.1l-7.5-13L103.3,484.1z
	 M103.3,484.1"/>
<path class="st1" d="M206.6,365.4v-42.9l-40.3-23.3l-7.5,13l32.8,18.9v34.3H206.6z M206.6,365.4"/>
<path class="st1" d="M511.9,322.9l-89.1-51.4l-7.5,13l81.6,47l0.1,102l-88.3,51l-86.3-49.8l-7.5,13l93.8,54.1L512,442.2L511.9,322.9
	z M511.9,322.9"/>
<path class="st1" d="M346.3,299.4l-40.9,23.7l0,40.6l15,0l0-31.9l33.4-19.3L346.3,299.4z M346.3,299.4"/>
<path class="st1" d="M209.1,73.6l-7.5-13l13-7.5l7.5,13L209.1,73.6z M298.2,70.5l-42-24.2l-3.8,2.2l-7.5-13l11.3-6.6l49.5,28.6
	L298.2,70.5z M230.7,61l-7.5-13l13-7.5l7.5,13L230.7,61z M230.7,61"/>
<path class="st1" d="M437.5,456.4l-7.5-13l42-24.3l0-4.4l15,0l0,13.1L437.5,456.4z M471.9,404.7l0-15l15,0l0,15L471.9,404.7z
	 M471.8,379.7l0-15l15,0l0,15L471.8,379.7z M471.8,379.7"/>
<path class="st1" d="M79.8,458.8L25,427.3v-15.7h15v7l47.2,27.2L79.8,458.8z M25,401.6v-15h15v15L25,401.6z M40,376.6H25v-15h15
	V376.6z M40,376.6"/>
</svg>
