<?xml version="1.0" encoding="utf-8"?>
<!-- Generator: Adobe Illustrator 24.0.0, SVG Export Plug-In . SVG Version: 6.00 Build 0)  -->
<svg version="1.1" id="artwork" xmlns="http://www.w3.org/2000/svg" xmlns:xlink="http://www.w3.org/1999/xlink" x="0px" y="0px"
	 viewBox="0 0 191.2 59.4" style="enable-background:new 0 0 191.2 59.4;" xml:space="preserve">
<style type="text/css">
	.st0{fill:#F05138;}
	.st1{fill:#FFFFFF;}
</style>
<g>
	<g>
		<path class="st0" d="M59.4,16.5c0-0.6,0-1.2,0-1.8c0-1.3-0.1-2.6-0.3-3.9c-0.2-1.3-0.6-2.5-1.2-3.7c-0.6-1.2-1.4-2.2-2.3-3.2
			c-0.9-0.9-2-1.7-3.2-2.3c-1.2-0.6-2.4-1-3.7-1.2C47.3,0.1,46,0.1,44.7,0c-0.6,0-1.2,0-1.8,0c-0.7,0-1.4,0-2.1,0H25.1h-6.5
			c-0.7,0-1.4,0-2.1,0c-0.6,0-1.2,0-1.8,0c-0.3,0-0.7,0-1,0c-1,0-2,0.1-2.9,0.3c-1,0.2-1.9,0.4-2.8,0.8C7.6,1.3,7.3,1.4,7,1.6
			C6.2,2,5.4,2.6,4.6,3.2C4.4,3.4,4.1,3.7,3.9,3.9C3,4.8,2.2,5.9,1.6,7c-0.6,1.2-1,2.4-1.2,3.7C0.1,12,0.1,13.4,0,14.7
			c0,0.6,0,1.2,0,1.8c0,0.7,0,1.4,0,2.1v9.7v12.6c0,0.7,0,1.4,0,2.1c0,0.6,0,1.2,0,1.8c0,1.3,0.1,2.6,0.3,3.9
			c0.2,1.3,0.6,2.5,1.2,3.7c0.6,1.2,1.4,2.2,2.3,3.2c0.9,0.9,2,1.7,3.2,2.3c1.2,0.6,2.4,1,3.7,1.2c1.3,0.2,2.6,0.3,3.9,0.3
			c0.6,0,1.2,0,1.8,0c0.7,0,1.4,0,2.1,0h22.2c0.7,0,1.4,0,2.1,0c0.6,0,1.2,0,1.8,0c1.3,0,2.6-0.1,3.9-0.3c1.3-0.2,2.5-0.6,3.7-1.2
			c1.2-0.6,2.2-1.4,3.2-2.3c0.9-0.9,1.7-2,2.3-3.2c0.6-1.2,1-2.4,1.2-3.7c0.2-1.3,0.3-2.6,0.3-3.9c0-0.6,0-1.2,0-1.8
			c0-0.7,0-1.4,0-2.1V18.6C59.4,17.9,59.4,17.2,59.4,16.5z"/>
		<path class="st1" d="M47.1,36.7C47.1,36.7,47.1,36.7,47.1,36.7c0.1-0.2,0.1-0.5,0.2-0.7c2.5-9.8-3.6-21.4-13.7-27.5
			c4.5,6,6.4,13.4,4.7,19.8c-0.2,0.6-0.3,1.1-0.6,1.7c-0.2-0.1-0.5-0.3-0.9-0.5c0,0-10.1-6.3-21.1-17.3c-0.3-0.3,5.9,8.8,12.8,16.1
			c-3.3-1.8-12.4-8.5-18.2-13.8c0.7,1.2,1.6,2.3,2.5,3.4c4.8,6.1,11.1,13.7,18.7,19.5c-5.3,3.2-12.8,3.5-20.3,0
			c-1.8-0.9-3.6-1.9-5.2-3.1c3.2,5.1,8,9.4,14,12c7.1,3,14.1,2.8,19.3,0l0,0c0,0,0.1,0,0.1,0c0.2-0.1,0.4-0.2,0.6-0.4
			c2.5-1.3,7.5-2.6,10.2,2.6C50.8,49.7,52.2,42.9,47.1,36.7z"/>
	</g>
</g>
<g id="XMLID_1_">
	<g>
		<path class="st1" d="M81.9,38.5c0.5,4.1,4.4,6.8,9.9,6.8c5.2,0,8.9-2.7,8.9-6.4c0-3.2-2.3-5.2-7.5-6.5l-5-1.3
			c-7.3-1.8-10.5-5.1-10.5-10.5c0-6.7,5.8-11.3,14.1-11.3c8,0,13.7,4.6,13.9,11.3h-5.3c-0.4-4.1-3.7-6.6-8.7-6.6
			c-4.9,0-8.4,2.5-8.4,6.2c0,2.9,2.1,4.6,7.4,5.9l4.2,1.1c8.1,2,11.5,5.2,11.5,10.9c0,7.3-5.8,11.8-14.9,11.8
			c-8.5,0-14.3-4.5-14.8-11.5L81.9,38.5L81.9,38.5z"/>
		<path class="st1" d="M140,49.4h-5.3l-6.2-21.8h-0.1l-6.2,21.8h-5.3l-7.9-28.5h5.2l5.5,22.9h0.1l6.2-22.9h5l6.3,22.9h0.1l5.5-22.9
			h5.1L140,49.4z"/>
		<path class="st1" d="M151.4,13.2c0-1.7,1.4-3.1,3.1-3.1c1.7,0,3.2,1.4,3.2,3.1c0,1.7-1.4,3.1-3.2,3.1
			C152.8,16.4,151.4,15,151.4,13.2z M151.9,20.9h5.2v28.5h-5.2V20.9z"/>
		<path class="st1" d="M191.2,25.1v-4.2h-5.5v-6.8h-5.2v6.8h-4.2h-5.7v-2.5c0-2.5,1-3.6,3.4-3.6c0.8,0,1.5,0.1,2.2,0.2v-4.1
			c-0.9-0.1-1.8-0.2-2.8-0.2c-5.6,0-7.9,2.3-7.9,7.6v2.6h-4v4.2h4v24.3h5.2V25.1h5.7h4.2V42c0,5.5,2.1,7.6,7.6,7.6
			c1.2,0,2.5-0.1,3.1-0.2v-4.3c-0.4,0.1-1.4,0.1-2,0.1c-2.4,0-3.5-1.1-3.5-3.7V25.1H191.2z"/>
	</g>
</g>
</svg>
